<svg width="67" height="26" viewBox="0 0 67 26" fill="none" xmlns="http://www.w3.org/2000/svg">
<path d="M17.126 20.5H12.5303L6.70312 12.4512C6.48307 12.4596 6.28418 12.4681 6.10645 12.4766C5.93717 12.4766 5.78483 12.4766 5.64941 12.4766C5.53939 12.4766 5.4209 12.4766 5.29395 12.4766C5.16699 12.4681 5.03581 12.4596 4.90039 12.4512V17.4531C4.90039 18.5365 5.01888 19.2093 5.25586 19.4717C5.57747 19.8441 6.0599 20.0303 6.70312 20.0303H7.37598V20.5H0V20.0303H0.647461C1.36686 20.0303 1.88737 19.7933 2.20898 19.3193C2.38672 19.057 2.47559 18.4349 2.47559 17.4531V6.33203C2.47559 5.2487 2.3571 4.57585 2.12012 4.31348C1.79004 3.94108 1.29915 3.75488 0.647461 3.75488H0V3.28516H6.27148C8.08268 3.28516 9.42839 3.42057 10.3086 3.69141C10.7402 3.81836 11.1423 4.00879 11.5146 4.2627C11.8955 4.5166 12.2256 4.81706 12.5049 5.16406C12.7926 5.51107 13.0169 5.90039 13.1777 6.33203C13.347 6.76367 13.4316 7.22494 13.4316 7.71582C13.4316 8.24902 13.347 8.74837 13.1777 9.21387C13.0085 9.6709 12.7461 10.0898 12.3906 10.4707C12.0436 10.8516 11.6035 11.1816 11.0703 11.4609C10.5371 11.7402 9.91081 11.9603 9.19141 12.1211L12.7461 17.0596C13.5671 18.2021 14.2653 18.9554 14.8408 19.3193C15.4333 19.6917 16.195 19.9287 17.126 20.0303V20.5ZM4.90039 11.6514C5.0612 11.6514 5.20085 11.6556 5.31934 11.6641C5.43783 11.6641 5.53516 11.6641 5.61133 11.6641C6.43229 11.6641 7.15169 11.571 7.76953 11.3848C8.39583 11.1901 8.91634 10.9235 9.33105 10.585C9.74577 10.2464 10.0547 9.84863 10.2578 9.3916C10.4694 8.92611 10.5752 8.42253 10.5752 7.88086C10.5752 7.34766 10.4863 6.861 10.3086 6.4209C10.1309 5.97233 9.87695 5.58724 9.54688 5.26562C9.22526 4.94401 8.83594 4.69434 8.37891 4.5166C7.93034 4.33887 7.43522 4.25 6.89355 4.25C6.64811 4.25 6.36035 4.27116 6.03027 4.31348C5.7002 4.34733 5.32357 4.40658 4.90039 4.49121V11.6514Z" fill="#009D66"/>
<path d="M21.7217 8.52832V17.8721C21.7217 18.2445 21.7344 18.5492 21.7598 18.7861C21.7852 19.0146 21.8232 19.2008 21.874 19.3447C21.9248 19.4886 21.9883 19.5986 22.0645 19.6748C22.1491 19.7425 22.2422 19.806 22.3438 19.8652C22.5638 19.9837 22.9447 20.043 23.4863 20.043V20.5H17.8369V20.043C18.1247 20.043 18.3574 20.0303 18.5352 20.0049C18.7214 19.9795 18.8695 19.9372 18.9795 19.8779C19.098 19.8187 19.1868 19.7467 19.2461 19.6621C19.3138 19.569 19.3773 19.459 19.4365 19.332C19.555 19.0697 19.6143 18.583 19.6143 17.8721V13.3906C19.6143 12.6543 19.6016 12.0745 19.5762 11.6514C19.5508 11.2282 19.5042 10.9108 19.4365 10.6992C19.3773 10.4876 19.2842 10.3564 19.1572 10.3057C19.0387 10.2464 18.8864 10.2168 18.7002 10.2168C18.4632 10.2168 18.1755 10.2803 17.8369 10.4072L17.6592 9.9502L21.1631 8.52832H21.7217Z" fill="white"/>
<path d="M34.8232 16.082C34.6624 16.8522 34.4212 17.5335 34.0996 18.126C33.778 18.7184 33.4014 19.2178 32.9697 19.624C32.5381 20.0303 32.0641 20.335 31.5479 20.5381C31.0316 20.7497 30.4984 20.8555 29.9482 20.8555C29.2965 20.8555 28.6745 20.7116 28.082 20.4238C27.4896 20.1361 26.9648 19.7256 26.5078 19.1924C26.0592 18.6592 25.6995 18.016 25.4287 17.2627C25.1579 16.501 25.0225 15.6462 25.0225 14.6982C25.0225 13.7842 25.1706 12.9505 25.4668 12.1973C25.763 11.4355 26.1608 10.7839 26.6602 10.2422C27.168 9.70052 27.7562 9.28158 28.4248 8.98535C29.1019 8.68066 29.8171 8.52832 30.5703 8.52832C31.1374 8.52832 31.6579 8.61296 32.1318 8.78223C32.6143 8.9515 33.029 9.17155 33.376 9.44238C33.723 9.71322 33.9938 10.0137 34.1885 10.3438C34.3916 10.6738 34.4932 10.9997 34.4932 11.3213C34.4932 11.6429 34.3916 11.9053 34.1885 12.1084C33.9854 12.3031 33.6934 12.4004 33.3125 12.4004C33.1178 12.4004 32.9359 12.3792 32.7666 12.3369C32.6058 12.2946 32.4619 12.2184 32.335 12.1084C32.2165 11.9984 32.1191 11.846 32.043 11.6514C31.9668 11.4567 31.916 11.207 31.8906 10.9023C31.8483 10.403 31.679 10.0264 31.3828 9.77246C31.0951 9.51009 30.6846 9.37891 30.1514 9.37891C29.652 9.37891 29.2119 9.49316 28.8311 9.72168C28.4502 9.94173 28.1286 10.2464 27.8662 10.6357C27.6038 11.0166 27.4049 11.4652 27.2695 11.9814C27.1426 12.4893 27.0791 13.0309 27.0791 13.6064C27.0791 14.2835 27.1637 14.9395 27.333 15.5742C27.5107 16.2005 27.7604 16.7591 28.082 17.25C28.4121 17.7409 28.8099 18.1344 29.2754 18.4307C29.7409 18.7269 30.2699 18.875 30.8623 18.875C31.2178 18.875 31.5563 18.8327 31.8779 18.748C32.1995 18.6549 32.5085 18.4984 32.8047 18.2783C33.1009 18.0583 33.3844 17.7578 33.6553 17.377C33.9346 16.9876 34.2012 16.4967 34.4551 15.9043L34.8232 16.082Z" fill="#009D66"/>
<path d="M39.9141 2.44727V10.9531C40.1849 10.6908 40.4515 10.4157 40.7139 10.1279C40.9847 9.84017 41.2725 9.5778 41.5771 9.34082C41.8818 9.10384 42.2119 8.90918 42.5674 8.75684C42.9313 8.60449 43.3418 8.52832 43.7988 8.52832C44.4167 8.52832 44.9202 8.66374 45.3096 8.93457C45.6989 9.19694 46.0036 9.55241 46.2236 10.001C46.4437 10.4411 46.5918 10.9447 46.668 11.5117C46.7526 12.0788 46.7949 12.6628 46.7949 13.2637V17.8721C46.7949 18.2614 46.7992 18.5915 46.8076 18.8623C46.8245 19.1247 46.8838 19.3405 46.9854 19.5098C47.0954 19.6706 47.2646 19.7933 47.4932 19.8779C47.7301 19.9626 48.0729 20.0176 48.5215 20.043V20.5H42.8086V20.043H43.0752C43.4561 20.043 43.7523 20.0091 43.9639 19.9414C44.1755 19.8737 44.3363 19.7594 44.4463 19.5986C44.5563 19.4294 44.624 19.2051 44.6494 18.9258C44.6748 18.6465 44.6875 18.2952 44.6875 17.8721V13.2637C44.6875 12.8997 44.679 12.5316 44.6621 12.1592C44.6536 11.7783 44.5944 11.4355 44.4844 11.1309C44.3743 10.8177 44.1882 10.5638 43.9258 10.3691C43.6719 10.166 43.3037 10.0645 42.8213 10.0645C42.6097 10.0645 42.3981 10.0898 42.1865 10.1406C41.9749 10.1829 41.7507 10.2676 41.5137 10.3945C41.2852 10.513 41.0397 10.6823 40.7773 10.9023C40.515 11.1139 40.2272 11.389 39.9141 11.7275V17.8721C39.9141 18.2868 39.9225 18.6126 39.9395 18.8496C39.9564 19.0781 39.986 19.2559 40.0283 19.3828C40.0791 19.5098 40.1426 19.6029 40.2188 19.6621C40.3034 19.7214 40.4092 19.7848 40.5361 19.8525C40.6546 19.9202 40.8197 19.971 41.0312 20.0049C41.2428 20.0303 41.4967 20.043 41.793 20.043V20.5H36.0293V20.043C36.3509 20.043 36.6217 20.026 36.8418 19.9922C37.0703 19.9499 37.2565 19.8568 37.4004 19.7129C37.5443 19.569 37.6458 19.3532 37.7051 19.0654C37.7728 18.7692 37.8066 18.3714 37.8066 17.8721V7.34766C37.8066 6.03581 37.7728 5.21908 37.7051 4.89746C37.6458 4.59277 37.5485 4.38542 37.4131 4.27539C37.2861 4.16536 37.1126 4.11035 36.8926 4.11035C36.6979 4.11035 36.4102 4.17806 36.0293 4.31348L35.8516 3.86914L39.3301 2.44727H39.9141Z" fill="white"/>
<path d="M58.6904 13.251C58.6904 14.1143 58.8047 14.8887 59.0332 15.5742C59.2617 16.2598 59.5706 16.8438 59.96 17.3262C60.3493 17.8001 60.7979 18.1641 61.3057 18.418C61.8219 18.6634 62.3636 18.7861 62.9307 18.7861C63.6924 18.7861 64.3525 18.5788 64.9111 18.1641C65.4782 17.7409 65.9521 17.0215 66.333 16.0059L66.7266 16.2598C66.6335 16.8268 66.4557 17.3854 66.1934 17.9355C65.931 18.4857 65.5924 18.9766 65.1777 19.4082C64.7715 19.8398 64.2933 20.1911 63.7432 20.4619C63.2015 20.7243 62.6091 20.8555 61.9658 20.8555C61.2718 20.8555 60.6159 20.7158 59.998 20.4365C59.3887 20.1488 58.8512 19.7467 58.3857 19.2305C57.9287 18.7057 57.5648 18.0752 57.2939 17.3389C57.0231 16.5941 56.8877 15.7604 56.8877 14.8379C56.8877 13.8307 57.0231 12.9378 57.2939 12.1592C57.5732 11.3721 57.9541 10.7077 58.4365 10.166C58.9189 9.62435 59.486 9.21387 60.1377 8.93457C60.7979 8.65527 61.5046 8.51562 62.2578 8.51562C62.901 8.51562 63.4935 8.62988 64.0352 8.8584C64.5853 9.07845 65.0592 9.39583 65.457 9.81055C65.8548 10.2253 66.1637 10.7246 66.3838 11.3086C66.6123 11.8841 66.7266 12.5316 66.7266 13.251H58.6904ZM58.6904 12.5146H64.0732C64.0394 11.7699 63.9505 11.2451 63.8066 10.9404C63.5951 10.4665 63.2777 10.0941 62.8545 9.82324C62.4398 9.55241 62.0039 9.41699 61.5469 9.41699C61.1999 9.41699 60.8656 9.48893 60.5439 9.63281C60.2223 9.76823 59.9303 9.97135 59.668 10.2422C59.4056 10.5046 59.1855 10.8262 59.0078 11.207C58.8385 11.5879 58.7327 12.0238 58.6904 12.5146Z" fill="#009D66"/>
<path d="M20.0557 0.5L22.2207 5.75H17.8906L20.0557 0.5Z" fill="#009D66"/>
<path d="M53.0557 7.5L54.3547 21H51.7566L53.0557 7.5Z" fill="#009D66"/>
</svg>
